<?xml version="1.0" encoding="utf-8"?>
<!-- Generator: Adobe Illustrator 16.0.3, SVG Export Plug-In . SVG Version: 6.00 Build 0)  -->
<!DOCTYPE svg PUBLIC "-//W3C//DTD SVG 1.1//EN" "http://www.w3.org/Graphics/SVG/1.1/DTD/svg11.dtd">
<svg version="1.1" id="Layer_1" xmlns="http://www.w3.org/2000/svg" xmlns:xlink="http://www.w3.org/1999/xlink" x="0px" y="0px"
	 width="194.785px" height="76.564px" viewBox="0 0 194.785 76.564" enable-background="new 0 0 194.785 76.564"
	 xml:space="preserve">
<g id="Layer_2" display="none">
	
		<image display="inline" overflow="visible" enable-background="new    " width="1366" height="1076" xlink:href="31B6E4E6.jpeg"  transform="matrix(0.9999 0 0 0.999 -900.1548 2.441406e-004)">
	</image>
	<rect x="-209.483" y="0" display="inline" fill="#F0F0F0" width="675.159" height="92.396"/>
</g>
<g id="Layer_1_1_">
	<g>
		<line fill="none" x1="2" y1="16.565" x2="2" y2="76.565"/>
		<rect x="1" y="16.565" fill="#323232" width="2" height="60"/>
	</g>
	<g>
		<path fill="#323232" d="M169.871,56.533c-0.309,0.567-0.902,1.063-1.458,1.363c-1.349,0.728-2.845,0.294-4.011-0.588
			c-0.934-0.701-1.272-1.64-1.686-2.681c-0.559-1.4-1.602-2.368-2.877-3.133c-1.313-0.788-2.708-1.279-4.248-1.263
			c-1.604,0.023-3.146,0.313-4.545,1.139c-1.296,0.768-2.393,1.736-2.965,3.154c-0.42,1.023-0.742,1.972-1.652,2.682
			c-1.147,0.896-2.65,1.368-4.012,0.667c-0.611-0.316-1.136-0.808-1.518-1.377c-0.353-0.53-0.457-1.352-0.438-1.966
			c0.059-1.506,1.167-2.568,2.485-3.138c0.926-0.395,1.815-0.364,2.782-0.2c1.11,0.188,2.154,0.162,3.229-0.234
			c2.137-0.784,4.245-2.456,5.066-4.646c-0.014,0.036-0.027,0.077-0.041,0.115c0.791-1.623,0.974-3.49,0.654-5.257
			c-0.201-1.113-0.699-2.012-1.408-2.87c-0.637-0.772-1.105-1.541-1.215-2.562c-0.133-1.274,0.133-2.614,1.176-3.443
			c0.927-0.731,2.09-0.983,3.201-0.643c0.972,0.299,1.803,0.946,2.188,1.907c0.443,1.113,0.373,2.569-0.189,3.634
			c-0.424,0.798-1.125,1.4-1.576,2.188c-0.748,1.312-0.883,3-0.715,4.474c0.291,2.566,1.815,5.013,4.039,6.34
			c1.272,0.762,2.695,1.313,4.198,1.149c1.013-0.108,1.962-0.386,2.974-0.088c1.35,0.405,2.674,1.396,2.939,2.85
			c0.146,0.792-0.002,1.663-0.357,2.387C169.887,56.507,169.882,56.521,169.871,56.533 M171.904,47.127
			c-1.518-0.878-3.166-1.419-4.924-1.485c-1.142-0.044-2.354,0.151-3.451-0.253c-0.59-0.214-1.137-0.593-1.479-1.123
			c-0.269-0.414-0.284-0.961-0.231-1.444c0.109-1.12,0.771-2.027,1.313-2.982c1.495-2.617,1.973-5.983,0.618-8.761
			c-1.433-2.933-4.5-4.844-7.728-5.063c-3.291-0.222-6.619,1.344-8.446,4.106c-1.759,2.648-1.703,6.154-0.335,8.968
			c0.459,0.935,1.123,1.781,1.49,2.755c0.265,0.701,0.332,1.497,0.101,2.215c-0.146,0.451-0.593,0.825-0.983,1.058
			c-1.095,0.655-2.354,0.509-3.572,0.52c-1.642,0.006-3.199,0.37-4.672,1.105c-1.47,0.74-2.687,1.793-3.517,3.23
			c-0.791,1.371-1.188,2.957-1.188,4.54c0.002,3.351,1.832,6.533,4.729,8.218c1.876,1.092,4.146,1.591,6.221,1.072
			c1.426-0.357,3.307-1.323,4.428-2.477c0.891-0.928,2.115-2.954,2.289-3.231c0.304-0.49,0.623-0.959,1.023-1.371
			c0.32-0.329,0.928-0.863,1.813-0.859c0.896-0.004,1.494,0.521,1.824,0.859c0.354,0.36,0.75,0.937,1,1.371
			c0.658,1.158,1.313,2.285,2.282,3.222c1.208,1.16,2.718,2.115,4.363,2.479c1.448,0.32,2.971,0.223,4.38-0.215
			c3.145-0.979,5.598-3.62,6.382-6.813c0.752-3.072-0.085-6.563-2.465-8.722C172.782,47.696,172.359,47.389,171.904,47.127"/>
		<path fill="#323232" d="M29.3,44.109v-9.308c0-1.024-0.468-1.472-1.274-1.472h-5.319v-2.654h6.75c1.833,0,2.905,1.128,2.905,3.495
			v9.938L29.3,44.109L29.3,44.109z M22.707,44.109v-7.624h3.063v7.624H22.707z"/>
		<path fill="#323232" d="M39.893,44.557c-3.017,0-5.297-1.631-5.297-5.835v-8.046h3.062v8.438c0,2.129,0.984,3.049,2.235,3.049
			c1.207,0,2.235-0.92,2.235-3.049V34.04c0-0.446-0.133-0.71-0.559-0.71h-1.72v-2.654h2.884c1.676,0,2.457,0.92,2.457,2.996v5.05
			C45.19,42.926,42.911,44.557,39.893,44.557z"/>
		<path fill="#323232" d="M48.542,38.931v-4.76c0-0.577-0.112-0.841-0.671-0.841h-0.894v-2.654h2.727
			c1.496,0,1.898,1.181,1.898,2.076v6.179H48.542z"/>
		<path fill="#323232" d="M59.225,44.557c-3.018,0-5.388-1.631-5.388-5.835V33.41c0-2.079,0.56-2.734,2.235-2.734h6.08
			c1.676,0,2.457,0.92,2.457,2.996v5.05C64.61,42.926,62.241,44.557,59.225,44.557z M61.549,34.04c0-0.446-0.225-0.71-0.647-0.71
			h-3.354c-0.425,0-0.648,0.264-0.648,0.71v5.074c0,2.129,1.072,3.049,2.325,3.049c1.206,0,2.324-0.92,2.324-3.049V34.04z"/>
		<path fill="#323232" d="M71.426,44.109v-9.308c0-1.024-0.469-1.472-1.273-1.472h-3.757v-2.654h5.187
			c1.833,0,2.907,1.128,2.907,3.495v9.938L71.426,44.109L71.426,44.109z"/>
		<path fill="#323232" d="M76.387,44.109v-2.393h3.979c1.229,0,1.386-0.867,1.386-4.443c0-3.26-0.425-4.206-1.966-4.206h-3.377
			v-2.392h5.03c2.659,0,3.465,1.761,3.465,5.703c0,2.523-0.357,4.34-1.588,5.338h2.279v2.393H76.387z"/>
		<path fill="#323232" d="M88.611,38.931v-4.76c0-0.577-0.111-0.841-0.669-0.841h-0.895v-2.654h2.727
			c1.497,0,1.899,1.181,1.899,2.076v6.179H88.611z"/>
		<path fill="#323232" d="M98.557,44.109h-4.873v-2.654h2.549c0.246,0,0.357-0.157,0.357-0.447v-6.468
			c0-0.789-0.401-1.209-0.982-1.209h-1.387v-2.654h2.504c1.766,0,2.905,0.92,2.905,3.469v7.811
			C99.63,43.741,99.205,44.109,98.557,44.109z"/>
		<path fill="#323232" d="M102.982,44.109v-9.938c0-0.577-0.112-0.841-0.672-0.841h-0.894v-2.654h2.728
			c1.496,0,1.898,1.181,1.898,2.076v11.356H102.982z"/>
		<path fill="#323232" d="M115.921,44.109c-0.828-1.788-2.995-5.601-4.135-7.335c-0.335,0.764-0.627,2.918-0.627,4.182
			c0,1.392,0.245,2.549,0.401,3.153h-3.219c-0.154-0.631-0.334-1.763-0.334-3.023c0-1.523,0.626-4.732,2.703-5.94l-3.018-4.469
			h3.465c1.297,1.707,2.927,4.18,4.156,6.177c0.381-0.867,0.604-1.733,0.604-3.232c0-1.133-0.134-2.288-0.247-2.943h3.176
			c0.178,0.631,0.268,1.394,0.268,2.232c0,1.997-0.58,4.076-2.793,5.652c0.714,1.104,2.615,4.496,3.173,5.548L115.921,44.109
			L115.921,44.109z"/>
		<path fill="#323232" d="M127.764,44.109v-9.308c0-1.024-0.467-1.472-1.271-1.472h-5.319v-2.654h6.75
			c1.833,0,2.905,1.128,2.905,3.495v9.938L127.764,44.109L127.764,44.109z M121.173,44.109v-7.624h3.062v7.624H121.173z"/>
		<path fill="#323232" d="M30.463,62.313v-9.307c0-1.025-0.551-1.475-1.499-1.475h-6.258v-2.654h7.94
			c2.156,0,3.417,1.13,3.417,3.497v9.938L30.463,62.313L30.463,62.313z M22.707,62.313v-7.624h3.602v7.624H22.707z"/>
		<path fill="#323232" d="M51.304,62.313v-9.568c0-0.867-0.367-1.211-1.235-1.211h-2.63c-0.814,0-1.236,0.367-1.236,1.211v9.568
			h-3.602V51.586c0-2.184,0.895-2.708,3.05-2.708h6.02c2.131,0,3.235,1.079,3.235,3.233v10.201H51.304z"/>
		<path fill="#323232" d="M64.756,62.313v-9.938c0-0.578-0.131-0.842-0.789-0.842h-1.05v-2.655h3.208
			c1.761,0,2.234,1.184,2.234,2.077v11.357H64.756z"/>
		<path fill="#323232" d="M86.413,62.313v-9.2c0-1.026-0.473-1.579-1.473-1.579h-2.683c-0.473,0-0.394,0.234-0.394,0.71v6.31
			c0,2.417-1.314,3.761-3.628,3.761H76.08v-2.655h1.104c0.474,0,1.104-0.369,1.104-0.944v-4.208c0-1.787,0.527-2.523,1.131-2.972
			h-2.47v-2.655h9.226c2.709,0,3.84,1.444,3.84,4.078v9.356L86.413,62.313L86.413,62.313z"/>
		<path fill="#323232" d="M105.387,62.313h-6.285v-2.656h5.627c1.604,0,2.683-1.366,2.683-4.127c0-2.813-0.974-4.285-3.05-4.285
			c-1.631,0-2.393,0.816-2.393,1.973c0,1.052,0.605,1.42,1.576,1.42h0.367v2.419h-1.602c-2.763,0-4.022-1.052-4.022-3.498
			c0-3.471,2.471-4.94,6.204-4.94c4.417,0,6.65,2.444,6.65,6.811C111.145,58.975,109.357,62.313,105.387,62.313z"/>
		<path fill="#323232" d="M127.174,62.313v-9.307c0-1.025-0.553-1.475-1.499-1.475h-6.258v-2.654h7.94
			c2.154,0,3.418,1.13,3.418,3.497v9.938L127.174,62.313L127.174,62.313z M119.417,62.313v-7.624h3.603v7.624H119.417z"/>
	</g>
	<rect x="194.785" y="0" fill="none" width="137.717" height="76.564"/>
	<rect y="0" fill="none" width="194.785" height="76.564"/>
	<rect x="-113.179" y="0" fill="none" width="114.179" height="76.564"/>
</g>
</svg>
