<?xml version="1.0" encoding="utf-8"?>
<!-- Generator: Adobe Illustrator 14.0.0, SVG Export Plug-In . SVG Version: 6.00 Build 43363)  -->
<!DOCTYPE svg PUBLIC "-//W3C//DTD SVG 1.1//EN" "http://www.w3.org/Graphics/SVG/1.1/DTD/svg11.dtd">
<svg version="1.1" id="Calque_1" xmlns="http://www.w3.org/2000/svg" xmlns:xlink="http://www.w3.org/1999/xlink" x="0px" y="0px"
	 width="106.952px" height="55.869px" viewBox="0 0 106.952 55.869" enable-background="new 0 0 106.952 55.869"
	 xml:space="preserve">
<g>
	<path fill="#009DDF" d="M36.614,26.864L22.646,18.8c-0.319-0.183-0.707-0.183-1.027,0c-0.314,0.184-0.511,0.522-0.511,0.888v16.128
		c0,0.365,0.196,0.704,0.511,0.887c0.158,0.094,0.335,0.137,0.514,0.137c0.178,0,0.353-0.047,0.513-0.137l13.967-8.063
		c0.315-0.184,0.511-0.522,0.511-0.888C37.125,27.384,36.929,27.047,36.614,26.864z"/>
	<g>
		<path fill="#009DDF" d="M86.589,25.89H71.862c-1.055,0-1.906,0.854-1.906,1.906c0,1.05,0.852,1.905,1.906,1.905h14.727
			c1.051,0,1.906-0.854,1.906-1.905C88.495,26.745,87.64,25.89,86.589,25.89z"/>
		<path fill="#009DDF" d="M86.589,32.906l-14.727,0.002c-1.055,0-1.906,0.854-1.906,1.906c0,1.051,0.852,1.904,1.906,1.904h14.727
			c1.051,0,1.906-0.854,1.906-1.904S87.64,32.909,86.589,32.906z"/>
		<path fill="#009DDF" d="M71.862,22.686h14.727c1.051,0,1.906-0.855,1.906-1.907c0-1.049-0.855-1.906-1.906-1.907l-14.727,0.001
			c-1.055,0-1.906,0.855-1.906,1.906C69.956,21.83,70.808,22.686,71.862,22.686z"/>
	</g>
	<path fill="#009DDF" d="M104.94,23.073L83.88,2.013c-1.295-1.297-3.021-2.011-4.861-2.011c-1.838,0-3.564,0.713-4.859,2.011
		l-20.605,20.62V22.63L42.268,33.916l-0.01-0.011L27.931,48.23L7.637,27.933L27.931,7.638l16.794,16.793l5.242-5.245L32.792,2.012
		C31.497,0.713,29.771,0,27.931,0c-1.837,0-3.564,0.715-4.86,2.012L2.008,23.071c-2.677,2.683-2.677,7.043,0,9.724l21.063,21.06
		c1.295,1.296,3.023,2.013,4.86,2.013c1.84,0,3.566-0.717,4.862-2.013l20.664-20.663l0.012,0.012L79.019,7.638l20.295,20.297
		L79.019,48.23L62.243,31.455l-5.244,5.242l17.16,17.157c1.295,1.3,3.021,2.015,4.859,2.015c1.84,0,3.566-0.715,4.861-2.015
		l21.061-21.058c1.297-1.299,2.012-3.024,2.012-4.862S106.237,24.369,104.94,23.073z"/>
</g>
<linearGradient id="SVGID_1_" gradientUnits="userSpaceOnUse" x1="79.2256" y1="27.9438" x2="79.2256" y2="3.2083">
	<stop  offset="0" style="stop-color:#FFFFFF;stop-opacity:0.5"/>
	<stop  offset="1" style="stop-color:#FFFFFF;stop-opacity:0"/>
</linearGradient>
<path fill="url(#SVGID_1_)" d="M71.862,22.686h14.727c1.051,0,1.906-0.855,1.906-1.907c0-1.049-0.855-1.906-1.906-1.907
	l-14.727,0.001c-1.055,0-1.906,0.855-1.906,1.906C69.956,21.83,70.808,22.686,71.862,22.686z"/>
<g>
	<linearGradient id="SVGID_2_" gradientUnits="userSpaceOnUse" x1="77.6367" y1="34.0586" x2="77.6367" y2="-18.1801">
		<stop  offset="0" style="stop-color:#FFFFFF;stop-opacity:0.5"/>
		<stop  offset="1" style="stop-color:#FFFFFF;stop-opacity:0"/>
	</linearGradient>
	<path fill="url(#SVGID_2_)" d="M48.331,27.854h10.484L79.019,7.638l20.211,20.215h7.713c-0.021-1.808-0.723-3.503-2.002-4.78
		L83.88,2.013c-1.295-1.297-3.021-2.011-4.861-2.011c-1.838,0-3.564,0.713-4.859,2.011l-20.605,20.62V22.63L48.331,27.854z"/>
	<linearGradient id="SVGID_3_" gradientUnits="userSpaceOnUse" x1="24.9873" y1="34.0596" x2="24.9873" y2="-18.1808">
		<stop  offset="0" style="stop-color:#FFFFFF;stop-opacity:0.5"/>
		<stop  offset="1" style="stop-color:#FFFFFF;stop-opacity:0"/>
	</linearGradient>
	<path fill="url(#SVGID_3_)" d="M7.719,27.854L27.931,7.638l16.794,16.793l5.242-5.245L32.792,2.012C31.497,0.713,29.771,0,27.931,0
		c-1.837,0-3.564,0.715-4.86,2.012L2.008,23.071c-1.317,1.32-1.981,3.048-2,4.782H7.719z"/>
</g>
<linearGradient id="SVGID_4_" gradientUnits="userSpaceOnUse" x1="79.2256" y1="27.9443" x2="79.2256" y2="3.2056">
	<stop  offset="0" style="stop-color:#FFFFFF;stop-opacity:0.5"/>
	<stop  offset="1" style="stop-color:#FFFFFF;stop-opacity:0"/>
</linearGradient>
<path fill="url(#SVGID_4_)" d="M88.483,27.854c0-0.021,0.012-0.037,0.012-0.057c0-1.052-0.855-1.906-1.906-1.906H71.862
	c-1.055,0-1.906,0.854-1.906,1.906c0,0.021,0.01,0.037,0.01,0.057H88.483z"/>
<linearGradient id="SVGID_5_" gradientUnits="userSpaceOnUse" x1="29.1167" y1="27.9443" x2="29.1167" y2="0.2953">
	<stop  offset="0" style="stop-color:#FFFFFF;stop-opacity:0.5"/>
	<stop  offset="1" style="stop-color:#FFFFFF;stop-opacity:0"/>
</linearGradient>
<path fill="url(#SVGID_5_)" d="M37.096,27.854c0.005-0.036,0.028-0.066,0.028-0.102c0-0.367-0.195-0.704-0.511-0.888L22.646,18.8
	c-0.319-0.183-0.707-0.183-1.027,0c-0.314,0.184-0.511,0.522-0.511,0.888v8.165H37.096z"/>
</svg>
